<svg xmlns="http://www.w3.org/2000/svg" width="14" height="15" viewBox="0 0 14 15" fill="none">
    <path d="M11.3728 3.43415H9.55686L8.50854 2.28845H5.07146L4.02315 3.43415H2.20722C1.90336 3.43415 1.61195 3.55485 1.39709 3.76971C1.18223 3.98457 1.06152 4.27599 1.06152 4.57984V11.454C1.06152 11.7579 1.18223 12.0493 1.39709 12.2641C1.61195 12.479 1.90336 12.5997 2.20722 12.5997H11.3728C11.6766 12.5997 11.9681 12.479 12.1829 12.2641C12.3978 12.0493 12.5185 11.7579 12.5185 11.454V4.57984C12.5185 4.27599 12.3978 3.98457 12.1829 3.76971C11.9681 3.55485 11.6766 3.43415 11.3728 3.43415ZM11.3728 11.454H2.20722V4.57984H4.52725L5.57556 3.43415H8.00444L9.05275 4.57984H11.3728V11.454ZM6.79 5.15269C6.03036 5.15269 5.30183 5.45446 4.76468 5.99161C4.22753 6.52876 3.92576 7.25729 3.92576 8.01693C3.92576 8.77657 4.22753 9.5051 4.76468 10.0423C5.30183 10.5794 6.03036 10.8812 6.79 10.8812C7.54964 10.8812 8.27817 10.5794 8.81532 10.0423C9.35247 9.5051 9.65424 8.77657 9.65424 8.01693C9.65424 7.25729 9.35247 6.52876 8.81532 5.99161C8.27817 5.45446 7.54964 5.15269 6.79 5.15269ZM6.79 9.73547C6.33421 9.73547 5.8971 9.55441 5.57481 9.23212C5.25252 8.90983 5.07146 8.47271 5.07146 8.01693C5.07146 7.56114 5.25252 7.12402 5.57481 6.80174C5.8971 6.47945 6.33421 6.29839 6.79 6.29839C7.24579 6.29839 7.68291 6.47945 8.00519 6.80174C8.32748 7.12402 8.50854 7.56114 8.50854 8.01693C8.50854 8.47271 8.32748 8.90983 8.00519 9.23212C7.68291 9.55441 7.24579 9.73547 6.79 9.73547Z" fill="#ECECEC"/>
</svg>